<?xml version="1.0" encoding="UTF-8" standalone="no"?>
<svg width="18px" height="22px" viewBox="0 0 18 22" version="1.1" xmlns="http://www.w3.org/2000/svg" xmlns:xlink="http://www.w3.org/1999/xlink">
    <!-- Generator: Sketch 41.2 (35397) - http://www.bohemiancoding.com/sketch -->
    <title>Slice 1</title>
    <desc>Created with Sketch.</desc>
    <defs></defs>
    <g id="Page-1" stroke="none" stroke-width="1" fill="none" fill-rule="evenodd">
        <path d="M18,21.7515266 L0,21.7515266 L0.789164409,6.55261013 L17.2100854,6.55261013 L18,21.7515266 Z M16.0548448,7.77011377 L1.94440508,7.77011377 L1.3795374,20.5340229 L16.6879767,20.5340229 L16.0548448,7.77011377 Z M9.09114399,0.024 C11.3873724,0.024 13.2657637,1.90239133 13.2657637,4.19786956 L13.2657637,4.68172036 L12.0482601,4.68172036 L12.0482601,4.19786956 C12.0482601,2.56777995 10.7219837,1.24150365 9.09114399,1.24150365 L8.90810586,1.24150365 C7.27801625,1.24150365 5.95173995,2.56777995 5.95173995,4.19786956 L5.95173995,4.68172036 L4.7342363,4.68172036 L4.7342363,4.19786956 C4.7342363,1.90239133 6.61187747,0.024 8.90810586,0.024 L9.09114399,0.024 L9.09114399,0.024 Z" id="Shape" fill="#5D5D5D"></path>
    </g>
</svg>